HIERARCHY
ROOT Bip001_Pelvis
{
  OFFSET 7.937 94.8971 -8.5489
  CHANNELS 6 Xposition Yposition Zposition Zrotation Xrotation Yrotation
  JOINT Bip001_Spine
  {
    OFFSET 1.44608e-005 10.4157 -0.0118244
    CHANNELS 3 Zrotation Xrotation Yrotation
    JOINT Bip001_L_Thigh
    {
      OFFSET 11.2582 -10.4157 0.0118432
      CHANNELS 3 Zrotation Xrotation Yrotation
      JOINT Bip001_L_Calf
      {
        OFFSET -0.720717 -44.8687 0.366937
        CHANNELS 3 Zrotation Xrotation Yrotation
        JOINT Bip001_L_Foot
        {
          OFFSET -0.664439 -41.3745 -3.62995
          CHANNELS 3 Zrotation Xrotation Yrotation
          JOINT Bip001_L_Toe0
          {
            OFFSET 0.0541047 -10.4146 13.4033
            CHANNELS 3 Zrotation Xrotation Yrotation
            End Site
            {
              OFFSET -1.04503e-005 0 7.70137
            }
          }
        }
      }
    }
    JOINT Bip001_R_Thigh
    {
      OFFSET -11.2582 -10.4156 0.0118122
      CHANNELS 3 Zrotation Xrotation Yrotation
      JOINT Bip001_R_Calf
      {
        OFFSET 0.72059 -44.8687 0.36676
        CHANNELS 3 Zrotation Xrotation Yrotation
        JOINT Bip001_R_Foot
        {
          OFFSET 0.664321 -41.3745 -3.62979
          CHANNELS 3 Zrotation Xrotation Yrotation
          JOINT Bip001_R_Toe0
          {
            OFFSET -0.05417 -10.4146 13.4033
            CHANNELS 3 Zrotation Xrotation Yrotation
            End Site
            {
              OFFSET -1.04873e-005 0 7.70137
            }
          }
        }
      }
    }
    JOINT Bip001_Spine1
    {
      OFFSET 1.90638e-005 14.8539 1.10727
      CHANNELS 3 Zrotation Xrotation Yrotation
      JOINT Bip001_Spine2
      {
        OFFSET 2.28934e-005 14.7848 -1.7233
        CHANNELS 3 Zrotation Xrotation Yrotation
        JOINT Bip001_Neck
        {
          OFFSET 2.24514e-005 15.6905 -0.498826
          CHANNELS 3 Zrotation Xrotation Yrotation
          JOINT Bip001_L_Clavicle
          {
            OFFSET 6.17691 -0.000591152 0.00852867
            CHANNELS 3 Zrotation Xrotation Yrotation
            JOINT Bip001_L_UpperArm
            {
              OFFSET 11.773 -0.0611878 0.00197697
              CHANNELS 3 Zrotation Xrotation Yrotation
              JOINT Bip001_L_Forearm
              {
                OFFSET 26.4515 0.0817568 -2.19579
                CHANNELS 3 Zrotation Xrotation Yrotation
                JOINT Bip001_L_Hand
                {
                  OFFSET 32.8677 0.156744 1.67112
                  CHANNELS 3 Zrotation Xrotation Yrotation
                  JOINT Bip001_L_Finger0
                  {
                    OFFSET 6.16268 -2.25226 6.01674
                    CHANNELS 3 Zrotation Xrotation Yrotation
                    End Site
                    {
                      OFFSET 4.30499 -1.46662 0.618148
                    }
                  }
                  JOINT Bip001_L_Finger1
                  {
                    OFFSET 11.2957 -0.718374 -0.201963
                    CHANNELS 3 Zrotation Xrotation Yrotation
                    End Site
                    {
                      OFFSET 6.31952 -0.405163 -0.0802303
                    }
                  }
                }
              }
            }
          }
          JOINT Bip001_R_Clavicle
          {
            OFFSET -6.17691 -0.000574027 0.00851165
            CHANNELS 3 Zrotation Xrotation Yrotation
            JOINT Bip001_R_UpperArm
            {
              OFFSET -11.773 -0.0611516 0.00194365
              CHANNELS 3 Zrotation Xrotation Yrotation
              JOINT Bip001_R_Forearm
              {
                OFFSET -26.4514 0.0822334 -2.19736
                CHANNELS 3 Zrotation Xrotation Yrotation
                JOINT Bip001_R_Hand
                {
                  OFFSET -32.8677 0.156817 1.67144
                  CHANNELS 3 Zrotation Xrotation Yrotation
                  JOINT Bip001_R_Finger0
                  {
                    OFFSET -6.1627 -2.25224 6.0167
                    CHANNELS 3 Zrotation Xrotation Yrotation
                    End Site
                    {
                      OFFSET -4.30499 -1.46662 0.618134
                    }
                  }
                  JOINT Bip001_R_Finger1
                  {
                    OFFSET -11.2958 -0.718344 -0.201994
                    CHANNELS 3 Zrotation Xrotation Yrotation
                    End Site
                    {
                      OFFSET -6.31952 -0.405146 -0.0802475
                    }
                  }
                }
              }
            }
          }
          JOINT Bip001_Head
          {
            OFFSET 1.11782e-005 11.4912 2.09908
            CHANNELS 3 Zrotation Xrotation Yrotation
            End Site
            {
              OFFSET 2.95144e-005 21.2823 -2.83069e-005
            }
          }
        }
      }
    }
  }
}
MOTION
Frames:	5
Frame Time:	0.04
4.83178 95.7219 -8.61818 -0.502768 -1.78421 5.00026 0.198477 0.682399 0.728712 7.3926 -7.07519 8.09673 -0.629277 12.8454 -1.98517 -4.8254 -3.67794 -2.7863 0.533068 -9.915 -0.0191743 -5.70217 -3.94869 -0.637634 0.904926 14.0738 1.83667 -1.22348 -7.92833 -13.703 -0.960635 -11.3846 0.201111 0.239399 1.3663 1.44996 0.239398 1.3663 1.44996 -2.39467 -2.18618 -2.74312 -27.067 7.26619 -11.0518 -50.4807 38.3783 8.37718 14.4142 4.59986 -26.9383 -5.41878 -0.310005 -1.1468 -4.77083e-015 -3.18055e-015 1.59028e-015 -6.36111e-015 0 1.59028e-015 15.9729 7.67472 21.0468 21.6075 -28.7308 43.0158 -31.7235 -0.950366 49.0657 -34.9487 3.42608 -4.20015 -3.18055e-015 3.18055e-015 -3.97569e-016 -3.18055e-015 -1.59028e-015 -0 -1.10563 0.889439 -3.08033 
4.85046 95.7338 -8.66248 -0.54838 -1.89547 4.46876 0.236596 0.727668 0.732531 7.39527 -6.89801 8.13959 -0.639216 12.8083 -1.70943 -4.83781 -3.72636 -2.62507 0.53939 -9.91278 0.0141588 -5.72338 -3.98931 -0.378839 0.92538 13.9887 1.85165 -1.1615 -7.80367 -13.4781 -0.995666 -11.3853 0.243478 0.30853 1.45728 1.45656 0.308921 1.45728 1.45662 -2.50555 -2.19209 -2.59891 -27.4637 7.31332 -10.8942 -50.7743 39.9402 9.33391 14.589 3.93903 -26.9735 -5.8583 -0.32528 -1.27069 -1.59028e-015 -3.18055e-015 1.59028e-015 -3.18055e-015 -3.18056e-015 3.18055e-015 16.0117 7.60768 20.8424 24.174 -29.5316 41.9804 -33.1537 -0.952008 54.0639 -34.0614 4.96003 -5.58439 -3.18055e-015 -1.59028e-015 -1.19271e-015 -1.10348e-032 -1.59028e-015 -3.97569e-016 -1.11253 0.919406 -2.97079 
4.84839 95.7352 -8.7167 -0.650658 -1.92507 3.96349 0.194024 0.747546 0.80322 7.57975 -6.88036 7.99285 -0.741774 12.9325 -1.29688 -4.84932 -3.83145 -2.45824 0.540318 -9.91167 0.0156213 -5.60034 -4.09158 -0.508865 0.853374 13.9238 1.99161 -1.07644 -7.68428 -13.0936 -1.02967 -11.386 0.301634 0.217264 1.49655 1.59795 0.217267 1.49662 1.59795 -2.14942 -2.19814 -2.73091 -27.5411 7.21911 -10.8364 -51.1656 40.8682 9.6903 14.4609 3.86491 -26.3295 -5.9786 -0.420719 -0.699328 -1.59028e-015 9.54166e-015 3.18055e-015 -3.18055e-015 6.36111e-015 4.77083e-015 17.0832 7.91231 20.551 25.6596 -31.0759 41.4754 -35.6044 0.39195 58.8419 -35.5861 5.73175 -6.23758 4.77083e-015 1.59028e-015 1.98785e-016 4.77083e-015 1.59028e-015 9.93923e-016 -1.20493 0.864364 -2.97855 
4.85433 95.7308 -8.75193 -0.742834 -1.9234 3.72453 0.173058 0.747716 0.813476 7.71592 -6.9279 8.05437 -0.763636 13.0892 -1.19943 -4.85067 -3.93807 -2.40685 0.543586 -9.91114 0.0302412 -5.52627 -4.14638 -0.673306 0.828265 13.8752 2.01735 -0.988444 -7.61724 -12.7599 -1.07359 -11.3866 0.348117 0.157924 1.49658 1.61917 0.160388 1.49664 1.61917 -1.96641 -2.23838 -2.75368 -27.602 7.16151 -10.6389 -51.5601 41.1538 9.83671 14.3876 3.94966 -25.6114 -5.76352 -0.394963 -0.494295 -4.77083e-015 -3.18055e-015 -0 -3.18055e-015 -6.36111e-015 -1.59028e-015 19.3004 8.33707 19.6533 28.9372 -33.8877 39.8794 -38.1609 2.00022 67.9184 -37.5185 6.42809 -5.51044 -3.18055e-015 -4.77083e-015 -3.18055e-015 -4.77083e-015 -6.36111e-015 2.5842e-015 -1.14243 0.813996 -2.96929 
4.86422 95.7238 -8.73271 -0.734101 -1.99359 3.8111 0.176175 0.74809 0.758763 7.72769 -6.88904 8.06521 -0.804317 13.1559 -1.26326 -4.81663 -3.97394 -2.37937 0.542593 -9.91098 0.0197589 -5.53752 -4.05518 -0.55866 0.836036 13.8911 1.72818 -0.894404 -7.679 -12.6193 -1.11943 -11.3859 0.363488 0.156974 1.49676 1.50996 0.165732 1.4968 1.51002 -1.84637 -2.15895 -2.7773 -27.7506 7.06954 -10.6365 -52.0839 40.4808 9.94508 14.1343 4.03531 -25.0284 -5.5548 -0.419411 -0.331272 0 0 -1.59028e-015 1.59028e-015 3.18056e-015 -3.18055e-015 21.5675 8.46289 18.2407 32.2036 -37.0352 36.767 -40.1416 3.62178 78.7662 -37.2794 6.81965 -4.43264 1.10348e-032 -1.59028e-015 3.97569e-016 1.59028e-015 -1.59028e-015 -7.95139e-016 -1.28108 0.684107 -2.92651 
